<?xml version="1.0" encoding="UTF-8" standalone="no"?>
<svg
   xmlns:dc="http://purl.org/dc/elements/1.1/"
   xmlns:cc="http://creativecommons.org/ns#"
   xmlns:rdf="http://www.w3.org/1999/02/22-rdf-syntax-ns#"
   xmlns:svg="http://www.w3.org/2000/svg"
   xmlns="http://www.w3.org/2000/svg"
   xmlns:sodipodi="http://sodipodi.sourceforge.net/DTD/sodipodi-0.dtd"
   xmlns:inkscape="http://www.inkscape.org/namespaces/inkscape"
   viewBox="0 0 256 256"
   id="svg3411"
   version="1.1"
   inkscape:version="0.91 r13725"
   sodipodi:docname="fritzbox-internet-ticket.svg"
   width="256"
   height="256"
   inkscape:export-filename="/home/schlomo/src/fritz-internet-ticket/fritzbox-internet-ticket.svg.png"
   inkscape:export-xdpi="90"
   inkscape:export-ydpi="90">
  <metadata
     id="metadata3446">
    <rdf:RDF>
      <cc:Work
         rdf:about="">
        <dc:format>image/svg+xml</dc:format>
        <dc:type
           rdf:resource="http://purl.org/dc/dcmitype/StillImage" />
        <dc:title></dc:title>
      </cc:Work>
    </rdf:RDF>
  </metadata>
  <sodipodi:namedview
     pagecolor="#ffffff"
     bordercolor="#666666"
     borderopacity="1"
     objecttolerance="10"
     gridtolerance="10"
     guidetolerance="10"
     inkscape:pageopacity="0"
     inkscape:pageshadow="2"
     inkscape:window-width="1879"
     inkscape:window-height="1176"
     id="namedview3444"
     showgrid="false"
     inkscape:zoom="1.8437352"
     inkscape:cx="182.44668"
     inkscape:cy="49.089936"
     inkscape:window-x="41"
     inkscape:window-y="24"
     inkscape:window-maximized="1"
     inkscape:current-layer="svg3411" />
  <defs
     id="defs3413">
    <filter
       id="e"
       style="color-interpolation-filters:sRGB">
      <feGaussianBlur
         stdDeviation="0.978289"
         id="feGaussianBlur3416" />
    </filter>
    <filter
       id="d"
       style="color-interpolation-filters:sRGB">
      <feGaussianBlur
         stdDeviation="0.917411"
         id="feGaussianBlur3419" />
    </filter>
    <linearGradient
       id="f"
       x1="50.610588"
       x2="73.714867"
       y1="11.203383"
       y2="134.7804"
       gradientTransform="matrix(1.3925899,0,0,0.71808647,0,168.429)"
       gradientUnits="userSpaceOnUse">
      <stop
         stop-color="#e6ca5c"
         offset="0"
         id="stop3422" />
      <stop
         stop-color="#f9e755"
         offset="1"
         id="stop3424" />
    </linearGradient>
  </defs>
  <g
     id="g3452"
     transform="matrix(1.36029,-0.58411329,0.46875731,1.4232136,-82.229376,-126.63162)">
    <path
       style="fill:#b1b1b1;filter:url(#e)"
       inkscape:connector-curvature="0"
       id="path3426"
       d="m 14.368,170.7769 c 0.06879,0.47076 0.125,0.94754 0.125,1.4375 0,5.457 -4.418,9.875 -9.875,9.875 -0.12421,0 -0.25189,-0.0267 -0.375,-0.0312 l 0,1.2188 c 1.661,1.0012 2.7812,2.8274 2.7812,4.9062 0,2.0788 -1.1202,3.905 -2.7812,4.9062 l 0,2.1875 c 1.661,1.0012 2.7812,2.8274 2.7812,4.9062 0,2.0788 -1.1202,3.905 -2.7812,4.9062 l 0,2.1875 c 1.661,1.0012 2.7812,2.8274 2.7812,4.9062 0,2.0788 -1.1202,3.905 -2.7812,4.9062 l 0,2.1875 c 1.661,1.0012 2.7812,2.8274 2.7812,4.9062 0,2.0788 -1.1202,3.905 -2.7812,4.9062 l 0,2.1875 c 1.661,1.0012 2.7812,2.8274 2.7812,4.9062 0,2.0788 -1.1202,3.905 -2.7812,4.9062 l 0,1.2812 c 0.12311,-0.005 0.25079,-0.0312 0.375,-0.0312 5.457,0 9.875,4.418 9.875,9.875 0,0.48993 -0.05621,0.96674 -0.125,1.4375 l 140.44,0 c -0.0693,-0.47076 -0.0937,-0.94757 -0.0937,-1.4375 0,-5.457 4.4492,-9.875 9.9062,-9.875 0.11743,0 0.2273,0.0272 0.34375,0.0312 l 0,-1.2188 c -1.7151,-0.98785 -2.875,-2.8494 -2.875,-4.9688 0,-2.1194 1.1599,-3.9809 2.875,-4.9688 l 0,-2.0625 c -1.7151,-0.98785 -2.875,-2.8494 -2.875,-4.9688 0,-2.1194 1.1599,-3.9809 2.875,-4.9688 l 0,-2.0625 c -1.7151,-0.98785 -2.875,-2.8494 -2.875,-4.9688 0,-2.1194 1.1599,-3.9809 2.875,-4.9688 l 0,-2.0625 c -1.7151,-0.98785 -2.875,-2.8494 -2.875,-4.9688 0,-2.1194 1.1599,-3.9809 2.875,-4.9688 l 0,-2.0625 c -1.7151,-0.98785 -2.875,-2.8494 -2.875,-4.9688 0,-2.1194 1.1599,-3.9809 2.875,-4.9688 l 0,-1.1562 c -0.11646,0.004 -0.22632,0.0312 -0.34375,0.0312 -5.457,0 -9.9062,-4.418 -9.9062,-9.875 0,-0.48996 0.0245,-0.96674 0.0937,-1.4375 l -140.44,0 z" />
    <path
       style="fill:#d09c10"
       inkscape:connector-curvature="0"
       id="path3428"
       d="m 11.893,168.6556 c 0.06879,0.47076 0.125,0.94754 0.125,1.4375 0,5.457 -4.418,9.875 -9.875,9.875 -0.12418,0 -0.25189,-0.0267 -0.375,-0.0312 l 0,1.2187 c 1.661,1.0012 2.7812,2.8274 2.7812,4.9063 0,2.0788 -1.1202,3.9051 -2.7812,4.9062 l 0,2.1875 c 1.661,1.0012 2.7812,2.8274 2.7812,4.9062 0,2.0788 -1.1202,3.9051 -2.7812,4.9062 l 0,2.1875 c 1.661,1.0012 2.7812,2.8274 2.7812,4.9062 0,2.0788 -1.1202,3.9051 -2.7812,4.9062 l 0,2.1875 c 1.661,1.0012 2.7812,2.8274 2.7812,4.9062 0,2.0788 -1.1202,3.9051 -2.7812,4.9062 l 0,2.1875 c 1.661,1.0012 2.7812,2.8274 2.7812,4.9062 0,2.0788 -1.1202,3.9051 -2.7812,4.9062 l 0,1.2812 c 0.12311,-0.005 0.25082,-0.0312 0.375,-0.0312 5.457,0 9.875,4.418 9.875,9.875 0,0.48999 -0.05621,0.96674 -0.125,1.4375 l 140.44,0 c -0.0692,-0.47076 -0.0937,-0.94751 -0.0937,-1.4375 0,-5.457 4.4492,-9.875 9.9062,-9.875 0.11746,0 0.2273,0.0272 0.34375,0.0312 l 0,-1.2188 c -1.7151,-0.98785 -2.875,-2.8493 -2.875,-4.9688 0,-2.1194 1.1599,-3.9809 2.875,-4.9688 l 0,-2.0625 c -1.7151,-0.98785 -2.875,-2.8493 -2.875,-4.9688 0,-2.1194 1.1599,-3.9809 2.875,-4.9688 l 0,-2.0625 c -1.7151,-0.98785 -2.875,-2.8493 -2.875,-4.9688 0,-2.1194 1.1599,-3.9809 2.875,-4.9688 l 0,-2.0625 c -1.7151,-0.98785 -2.875,-2.8493 -2.875,-4.9688 0,-2.1194 1.1599,-3.9809 2.875,-4.9688 l 0,-2.0625 c -1.7151,-0.98785 -2.875,-2.8494 -2.875,-4.9688 0,-2.1194 1.1599,-3.9809 2.875,-4.9688 l 0,-1.1562 c -0.11646,0.004 -0.22629,0.0312 -0.34375,0.0312 -5.457,0 -9.9062,-4.418 -9.9062,-9.875 0,-0.48996 0.0245,-0.96674 0.0937,-1.4375 l -140.44,0 z" />
    <path
       style="fill:url(#f)"
       inkscape:connector-curvature="0"
       id="path3430"
       d="m 11.125,168.6556 c 0.06882,0.47076 0.125,0.94754 0.125,1.4375 0,5.457 -4.418,9.875 -9.875,9.875 -0.12418,0 -0.25189,-0.0267 -0.375,-0.0312 l 0,1.2187 c 1.661,1.0012 2.7812,2.8274 2.7812,4.9063 0,2.0788 -1.1202,3.9051 -2.7812,4.9062 l 0,2.1875 c 1.661,1.0012 2.7812,2.8274 2.7812,4.9062 0,2.0788 -1.1202,3.9051 -2.7812,4.9062 l 0,2.1875 c 1.661,1.0012 2.7812,2.8274 2.7812,4.9062 0,2.0788 -1.1202,3.9051 -2.7812,4.9062 l 0,2.1875 c 1.661,1.0012 2.7812,2.8274 2.7812,4.9062 0,2.0788 -1.1202,3.9051 -2.7812,4.9062 l 0,2.1875 c 1.661,1.0012 2.7812,2.8274 2.7812,4.9062 0,2.0788 -1.1202,3.9051 -2.7812,4.9062 l 0,1.2812 c 0.12311,-0.005 0.25082,-0.0312 0.375,-0.0312 5.457,0 9.875,4.418 9.875,9.875 0,0.48999 -0.05618,0.96674 -0.125,1.4375 l 140.44,0 c -0.0693,-0.47076 -0.0937,-0.94751 -0.0937,-1.4375 0,-5.457 4.4492,-9.875 9.9062,-9.875 0.11743,0 0.2273,0.0272 0.34375,0.0312 l 0,-1.2188 c -1.7151,-0.98785 -2.875,-2.8493 -2.875,-4.9688 0,-2.1194 1.1599,-3.9809 2.875,-4.9688 l 0,-2.0625 c -1.7151,-0.98785 -2.875,-2.8493 -2.875,-4.9688 0,-2.1194 1.1599,-3.9809 2.875,-4.9688 l 0,-2.0625 c -1.7151,-0.98785 -2.875,-2.8493 -2.875,-4.9688 0,-2.1194 1.1599,-3.9809 2.875,-4.9688 l 0,-2.0625 c -1.7151,-0.98785 -2.875,-2.8493 -2.875,-4.9688 0,-2.1194 1.1599,-3.9809 2.875,-4.9688 l 0,-2.0625 c -1.7151,-0.98785 -2.875,-2.8494 -2.875,-4.9688 0,-2.1194 1.1599,-3.9809 2.875,-4.9688 l 0,-1.1562 c -0.11646,0.004 -0.22632,0.0312 -0.34375,0.0312 -5.457,0 -9.9062,-4.418 -9.9062,-9.875 0,-0.48996 0.0245,-0.96674 0.0937,-1.4375 l -140.44,0 z" />
    <path
       style="opacity:0.44100001;fill:#e7cc5b;filter:url(#d)"
       inkscape:connector-curvature="0"
       id="path3432"
       d="m 141.34,174.7806 c -2.2876,0.0383 -4.6064,1.9792 -5.1875,6.3438 -2.778,6.343 -9.6207,-1.8943 -11.156,-0.875 -0.35437,0.23523 -0.42395,0.95316 -0.0937,2.4688 1.3695,1.7489 2.0231,2.9698 2.125,3.7812 -0.23578,-0.0511 -0.44711,-0.0659 -0.59375,0.0312 -0.24542,0.1629 -0.34659,0.58069 -0.28125,1.3125 -0.4845,0.17291 -1.17,0.18414 -1.9375,0.15625 -0.79517,0.95221 -2.0601,1.9019 -2.9375,2.9062 0.76178,0.78354 1.1087,1.9663 1.2812,3.4375 4.7434,-0.56073 4.9617,3.4627 4.9375,8.4062 -1.9782,0.97668 -4.209,0.30988 -5.2188,-1.5625 1.9768,-1.7584 3.9531,-3.4069 0.375,-5.8125 0.058,0.95374 0.0987,1.9576 0.0937,3.0312 -2.2197,1.096 -4.7916,0.10785 -5.5625,-2.3125 0.0476,-0.97058 -0.0541,-1.7291 -0.25,-2.3438 -0.12497,0.034 -0.26489,0.0791 -0.375,0.125 -0.43457,2.3034 1.3483,5.4014 2.8438,8.2812 -0.55518,0.87427 -1.8092,1.407 -4.1562,1.5 2.6689,2.0274 4.4884,5.0847 6.375,7.8125 1.0274,1.1404 0.80524,2.5342 -0.0937,3.1875 -0.002,0.004 -0.0295,-0.004 -0.0312,0 -0.004,0.003 0.004,0.0283 0,0.0312 -0.20941,0.43457 -0.51914,0.90454 -0.90625,1.4062 -0.75021,2.4269 0.80212,4.6937 3.25,5.0625 0.61777,-0.87817 1.1589,-1.7154 1.6562,-2.5312 1.5621,4.0187 -0.99799,4.2175 -3.625,4.5312 -0.0253,0.22192 -0.0112,0.44177 0,0.65625 0.22888,0.21228 0.4671,0.43341 0.65625,0.6875 -0.13599,0.0625 -0.31201,0.17041 -0.46875,0.28125 0.44922,1.3594 1.6338,2.4175 3.2188,2.6562 2.8444,-4.0433 4.9633,-7.4688 0.75,-9.7188 0.699,-1.306 1.0838,-2.4842 0.90625,-3.5625 1.5926,-0.39752 3.5867,-0.36493 4.8125,-0.96875 -1.7215,-2.471 -3.7819,-3.2156 -5.3438,-2.7188 -0.60504,0.1925 -1.1345,0.57538 -1.5312,1.0938 -0.52585,-0.30615 -1.1442,-0.6123 -1.9062,-0.875 -0.0141,-5.9504 11.732,0.0719 7.5625,-8.6562 -0.71686,-1.2981 -1.0234,-2.4924 -1.0312,-3.5312 0.47467,-0.38403 0.92261,-0.93109 1.2812,-1.75 0.0728,-0.54657 0.15823,-1.0598 0.28125,-1.5312 1.6655,-1.089 4.3164,-0.55456 6.375,2.7188 2.8767,1.807 3.5402,0.36359 3.6562,-1.5938 -0.26401,-0.43597 -0.45602,-0.92773 -0.53125,-1.4688 -0.62283,-0.60346 -1.0582,-1.4013 -1.1562,-2.3438 1.9684,-0.68741 3.9042,-1.2952 3.4688,-3.2812 -0.12671,-0.17856 -0.25632,-0.37045 -0.40625,-0.5625 -0.12582,-0.14368 -0.19989,-0.29452 -0.3125,-0.4375 0.14029,0.0212 0.24262,0.0381 0.375,0.0625 -0.20029,-0.41989 -0.4646,-0.88214 -0.84375,-1.4062 -0.0377,0.19141 -0.10074,0.37241 -0.0937,0.59375 -0.73468,-1.168 -1.0059,-2.2719 -0.96875,-3.25 -0.11996,0.30026 -0.16946,0.61145 -0.15625,1 -1.6792,-2.6696 -1.082,-5.0916 0.59375,-6.0625 1.3458,-0.77982 3.3748,-0.5802 5.4688,1.1875 -0.37082,-3.5605 -2.7707,-5.6343 -5.1875,-5.5938 l -2e-4,1e-4 z m -24.406,18.969 c -0.12347,-0.38733 -0.26572,-0.70001 -0.46875,-0.96875 0.15659,0.31995 0.30258,0.64581 0.46875,0.96875 z m -74.875,-18.219 c -0.11993,-0.002 -0.25662,0.0131 -0.375,0.0312 -1.657,0.25446 -3.1213,1.8997 -3.25,4.6562 1.6895,-2.6112 5.4815,0.0348 7.875,-0.125 -0.64981,-2.9406 -2.2729,-4.3954 -3.9062,-4.5312 -0.12064,-0.0101 -0.22382,-0.0292 -0.34375,-0.0312 z m 33,3.6875 c -0.0592,-0.009 -0.13098,0.0203 -0.1875,0.0312 -0.41727,0.0824 -0.75879,0.72299 -1.0312,2.25 0.56369,2.0109 0.69559,3.2918 0.53125,4.0938 1.3331,1.5616 2.4886,2.5459 4.3438,-0.125 0.19653,0.28201 0.36658,0.60648 0.53125,0.9375 3.2837,-1.0981 6.2619,1.65 5.875,5.6563 2.3271,-2.3878 4.9137,-6.5116 7.375,-4.25 0.15686,0.7486 0.14358,1.7062 0,2.75 -2.1196,-0.96341 -4.506,-1.3752 -6.9062,1.5625 -0.216,0.26434 -0.40576,0.51361 -0.5625,0.75 -0.13116,0.63849 -0.34302,1.3205 -0.65625,2 0.0563,0.63483 0.43454,1.1126 1.0312,1.4688 0.26874,-0.27545 0.55136,-0.27136 0.875,0.21875 0.66162,-0.0591 1.3729,0.005 2.1875,0.1875 2.5018,0.56207 3.3815,1.5363 3.625,2.625 1.5096,-0.0959 2.7164,0.29266 3.0625,1.8438 -0.24777,0.58386 -0.64499,1.2049 -1.1875,1.8438 1.0912,-0.2395 2.2279,-0.65796 3.3438,-1.1875 -1.9705,-2.3612 -5.8735,-5.5269 -0.375,-7.0938 3.6484,-1.0397 5.3734,0.65448 6.5625,2.6562 0.7142,-0.7746 1.2637,-1.5459 1.5625,-2.25 -1.3138,-5.8882 -14.834,5.0889 -11.469,-5.0625 1.0514,-1.6799 1.5006,-3.3205 1.5,-4.75 -4.3698,1.6227 -3.2924,-2.0396 -4,-5.1875 -1.977,-0.24759 -4.3426,0.905 -6.2188,4.1562 -4.83,4.6553 -7.9758,-4.8526 -9.8125,-5.125 l 0,6e-5 z m 71.5,1.625 c -0.28253,0.1752 -0.59717,0.35562 -0.9375,0.5 0.30792,0.12363 0.6185,0.27893 0.9375,0.46875 0.0153,-0.33414 0.0166,-0.65518 0,-0.96875 z m -108.12,0.3125 c 0.01071,0.18167 0.0101,0.34143 0.03119,0.53125 0.2998,5.485 -2.3233,4.6395 -5.0625,3.875 -1.0284,1.8622 -0.3916,4.1147 1.5,5.25 4.5212,-2.877 8.0206,-5.4063 3.5312,-9.6562 l 6.1e-5,0 z m 24.531,1.125 c -0.71918,1.1037 -0.87058,2.6947 -0.8125,4.4688 -1.4898,1.3288 -2.4501,2.9462 -1.4375,5.375 0.39209,0.12866 0.83258,0.27856 1.2812,0.4375 1.2651,-2.0385 2.6476,-3.9522 2.125,-5.6875 0.42236,-1.7462 0.99722,-1.8998 1.7188,-1.2188 0.64578,-0.55139 1.3003,-1.0742 1.9688,-1.4062 -1.7946,-1.0319 -3.5859,-1.9743 -4.8438,-1.9688 z m 94.156,0.1875 c -0.41742,0.01 -0.85565,0.15579 -1.3125,0.34375 -0.68094,0.28012 -1.3751,0.68991 -2.0938,1.1875 1.557,0.71167 3.1908,1.3849 4.9375,1.2812 0.18921,-0.65347 0.30701,-1.2472 0.3125,-1.7812 -0.51852,-0.74103 -1.148,-1.0471 -1.8438,-1.0312 z m -10.438,1.125 c -1.6987,0.71603 -3.9287,1.1848 -4.75,2.5938 1.523,0.35864 2.4531,0.97873 2.9688,1.7812 0.0344,-0.75143 0.23434,-1.5872 0.6875,-2.5938 0.34674,-0.7702 0.71002,-1.3382 1.0938,-1.7812 z m -29.844,3.7188 c -0.36874,0.008 -0.6889,0.07 -1,0.125 -0.46582,0.85007 -0.54651,1.7813 0.21875,2.875 0.77551,-0.21982 1.456,-0.32581 2.0625,-0.375 0.0294,-0.65213 0.2384,-1.2776 0.625,-1.7812 0.19794,-0.25787 0.43607,-0.46298 0.71875,-0.65625 -0.92749,-0.1076 -1.8406,-0.20407 -2.625,-0.1875 z m -95.438,0.5625 c -0.98065,-0.0107 -2.0315,0.45779 -3.1875,1.5938 -1.4538,1.4286 -1.5616,2.5506 -0.96875,3.5625 1.9597,-0.0215 3.7158,-0.68304 4.4062,-3.375 0.17542,-0.68393 0.24258,-1.247 0.25,-1.7188 -0.1701,-0.029 -0.32669,-0.0606 -0.5,-0.0625 z m 125.06,3.5938 c 0.26798,1.7829 -0.63324,4.1218 -1.7188,6.7187 -0.53802,0.0364 -1.0266,-0.0119 -1.5,-0.15625 0.45261,0.16449 1.1656,0.85773 2.3125,2.3125 0.19949,0.31152 0.4097,0.56757 0.625,0.8125 2.4065,-1.7194 5.1243,-4.0935 6.9062,-2.5625 -0.5408,-3.7956 -4.3946,-5.0615 -6.625,-7.125 z m -5.3438,4.9375 c 0.0475,0.73865 0.0205,1.5184 -0.125,2.375 0.17163,2.4156 0.72842,3.492 1.5312,3.7812 0.11621,-2.1048 -0.38043,-4.7547 0.59375,-4.5625 -0.84198,-0.28619 -1.5375,-0.86084 -2,-1.5938 z m -102.56,0.6562 c -0.98444,0.20068 -1.6744,1.4509 -0.3125,4.3438 3.8709,-2.0987 2.266,-4.2278 0.75,-4.3438 -0.1474,-0.0113 -0.29688,-0.0287 -0.4375,0 z m 28.969,1.5312 c -0.77564,0.0358 -0.78601,3.8354 -2.875,3.6562 -0.08749,0.19134 -0.17642,0.37262 -0.28125,0.53125 -0.08899,-0.23657 -0.1983,-0.46112 -0.3125,-0.6875 -0.56696,-0.21143 -1.2466,-0.63946 -2.0938,-1.4375 -0.0224,-0.0211 -0.04059,-0.0414 -0.0625,-0.0625 -0.58005,0.54791 -1.1586,1.4218 -1.6875,2.9062 -0.60318,1.6932 -0.53177,2.7402 -0.125,3.4375 0.95074,-0.67688 2.363,-1.0632 4.2188,-0.9375 -0.09259,0.41699 -0.29224,0.8667 -0.53125,1.3125 0.78467,-0.23901 1.7151,-0.35565 2.8125,-0.28125 -0.33884,1.5261 -1.9619,3.2996 -2.5,5 0.33108,0.0817 0.892,0.38397 1.625,0.8125 0.09619,-0.0155 0.18857,-0.0225 0.28125,-0.0312 -0.01669,-0.12116 -0.026,-0.24005 -0.03119,-0.375 -0.34756,-8.9053 6.7464,-2.6918 3.25,-11.062 -0.87408,-2.0926 -1.3474,-2.7969 -1.6875,-2.7812 l -1e-4,-1e-4 z m -52,6.125 c -0.89694,0 -1.6363,0.79663 -2.2188,3.5938 -0.71631,3.4401 -0.0271,3.7411 1.1562,3.3438 0.30615,-1.2948 1.6202,-2.3024 3,-3.4062 -0.51987,-1.036 -0.64731,-2.1047 -0.40625,-3.0625 -0.5491,-0.25348 -1.0737,-0.46875 -1.5312,-0.46875 z m 62,2.9062 c -2.0597,0.0662 -4.2962,4.3361 -1.125,3.5625 1.1062,-0.59241 2.4343,-2.2982 1.5312,-3.5312 -0.13416,-0.0356 -0.26895,-0.0358 -0.40625,-0.0312 l 0,-6e-5 z m -21.906,2.0938 c 0.02539,0.55054 0.0444,1.1078 0.09369,1.6562 -0.341,-0.13812 -0.7269,-0.31171 -1.1562,-0.5625 -0.20129,-0.11755 -0.36017,-0.25067 -0.53125,-0.375 -0.20087,0.16357 -0.40585,0.36639 -0.625,0.59375 -5.3699,5.5722 1.1479,11.313 -6.1562,14.219 -1.1042,0.43933 -1.8842,0.54858 -2.4375,0.4375 -0.1225,2.5741 -1.7791,6.1944 1.5312,7.1562 0.46646,-0.65735 0.93332,-1.1752 1.375,-1.5938 -0.3858,-0.52655 -0.57922,-1.1464 -0.59375,-1.7812 -0.03748,-1.6386 1.2383,-3.3868 4.0938,-4.3438 0.23462,1.3462 -0.33963,3.2349 -0.40625,4.875 1.0847,0.133 2.0996,0.83685 3.1562,1.875 1.8371,-1.8732 3.4782,-1.7942 5.0938,-0.71875 0.01971,-0.26019 0.04941,-0.53534 0.09372,-0.8125 0.33777,-2.1096 1.1944,-2.732 2.25,-2.6875 -0.17722,-1.3656 -0.08041,-2.8563 0.625,-4.5938 0.005,-0.0135 0.02579,-0.0179 0.03119,-0.0312 -0.63504,-0.40124 -1.2053,-1.209 -1.625,-2.75 -0.41415,-1.5205 -0.44428,-2.5939 -0.28125,-3.375 0.03,0.005 0.06342,0.0263 0.09372,0.0312 3.9034,0.57965 4.0789,-1.0047 3.75,-2.5312 -0.50635,-0.21722 -0.94012,-0.4646 -1.3125,-0.75 -3.5052,4.2038 -4.0309,-4.0801 -7.0625,-3.9375 l 1.83e-4,0 z m -32.562,5.9688 c -1.0584,0.5874 -2.0876,1.1562 -3.125,1.3438 -2.2638,4.9494 -13.462,1.8411 -9.5,8.9062 4.5676,8.1453 8.5955,-7.5309 13.844,-0.0312 1.7229,2.462 1.4683,4.6555 0.65625,6.6562 -0.003,0.0215 0.002,0.0408 0,0.0625 -0.03879,0.34595 -0.05899,0.72198 -0.0625,1.125 -0.18057,0.0609 -0.36612,0.0941 -0.53125,0.125 -1.8231,3.4907 -4.5343,6.376 0.25,9.0312 7.0352,3.9045 7.4041,-5.353 13.125,-6.3438 0.12918,-1.2887 -0.0705,-2.1576 -0.5625,-2.7188 -3.1842,0.625 -6.6619,1.4712 -8.75,0.40625 -0.01349,-0.11859 -0.003,-0.24554 0,-0.375 -0.35666,0.0686 -0.71143,0.096 -1.0625,0.15625 0.315,-0.1192 0.65604,-0.14624 1.0625,-0.15625 0.64493,-0.0151 1.3945,0.0875 2.3125,0.40625 2.5395,-0.0589 4.2085,-2.2491 3.7812,-4.6875 -1.0289,-0.30682 -2.006,-0.53735 -2.9375,-0.75 3.3151,-2.7568 4.3374,-0.42285 5.4688,1.9688 0.89438,-0.19012 1.6287,-0.66669 2.1562,-1.3125 -0.72775,-0.90826 -0.63446,-1.6874 -0.1875,-2.1562 0.099,-0.10388 0.21631,-0.17511 0.34375,-0.25 0.21539,-0.12671 0.46204,-0.18652 0.71875,-0.21875 -0.007,-0.20337 -0.02591,-0.41638 -0.0625,-0.625 -4.7371,-1.4138 -8.6412,-2.3346 -9.4375,2.375 -1.4604,-0.24829 -2.6901,-0.22937 -3.6562,0.28125 -0.71698,-1.1245 -1.2787,-2.6253 -1.9688,-3.6562 0.24268,-0.72864 0.43585,-1.3926 0.40625,-1.9062 -0.72064,-0.14319 -1.1002,-0.34369 -1.1875,-0.625 -0.052,-0.16803 0.01001,-0.38184 0.125,-0.59375 -0.8074,-0.13043 -2.1552,0.1778 -4.2188,1 -1.5473,-0.10944 -2.2177,-0.40625 -2.3438,-0.8125 -0.38495,-1.2407 4.3522,-3.7125 5.3438,-6.625 l 0,-6e-5 z m 126.44,0.125 c -0.11993,-0.002 -0.22537,0.0131 -0.34375,0.0312 -1.657,0.25446 -3.1213,1.8997 -3.25,4.6562 0.21118,-0.32642 0.4487,-0.57214 0.71875,-0.75 -0.58929,0.78149 -0.99814,1.8404 -1.0625,3.2188 0.1203,-0.18597 0.2659,-0.302 0.40625,-0.4375 0.0117,0.64673 -0.0495,1.1972 -0.125,1.6562 -0.0947,-0.0957 -0.17822,-0.18372 -0.28125,-0.28125 0.0107,0.18164 0.0101,0.34143 0.0312,0.53125 0.0133,0.24329 -0.002,0.46851 0,0.6875 -0.7774,1.8787 -2.7105,1.2792 -4.7188,0.71875 -0.45807,0.82947 -0.57263,1.7426 -0.40625,2.5938 -0.93326,1.837 -0.28702,4.015 1.5625,5.125 3.3909,-2.1578 6.1978,-4.1108 5.5,-6.75 -0.002,-0.009 0.002,-0.0222 0,-0.0312 0.78473,-1.36 0.66248,-2.8697 -0.96875,-4.6875 1.9114,-0.88782 4.885,0.88287 6.875,0.75 -0.23734,-1.074 -0.61237,-1.9392 -1.0625,-2.625 0.49509,0.10394 0.9801,0.18475 1.4062,0.15625 -0.64981,-2.9406 -2.2729,-4.3953 -3.9062,-4.5312 -0.1206,-0.01 -0.25504,-0.0292 -0.375,-0.0312 l 1e-4,-1e-4 z m -111.66,0.4688 c -4.6328,-0.0911 -1.5939,4.5269 -1.125,6.9062 0.9599,0.23334 2.1216,0.26916 3.4688,-0.0312 1.4728,-0.2384 2.4786,-0.22101 3.1875,0 -0.27112,-2.6075 -0.08319,-6.3206 -4.8125,-6.8125 -0.26166,-0.0272 -0.49438,-0.0581 -0.71875,-0.0625 l 0,-6e-5 z m 34.281,0.3438 c 0.41501,0.85968 0.78619,1.843 1.125,2.9375 0.24106,-1.9998 -0.26691,-2.7212 -1.125,-2.9375 z m 35.25,2.2812 c -1.7871,1.183 -3.3353,2.6942 -4.8438,4.2188 1.0399,0.40192 1.9735,1.2256 2.5,2.2812 2.0579,2.7437 4.7349,-1.3655 4.0625,-3.5625 -0.41894,-1.0074 -1.0894,-1.9662 -1.7188,-2.9375 z m -33.719,1 c -0.09988,0.032 -0.1937,0.065 -0.28125,0.125 0.0939,0.31262 0.18793,0.61481 0.28125,0.9375 -1.4577,1.3447 -3.4837,1.4628 -4.9688,0.375 0.17996,0.6698 0.54739,1.4357 1.1875,2.375 0.72742,0.35541 1.3922,0.45593 1.9688,-0.0937 0.0647,0.65478 0.35019,1.1275 0.9375,1.125 0.76431,-1.4317 3.8264,-2.9614 3.5625,-3.875 -0.9346,-0.20666 -1.7222,-0.86822 -2.6875,-0.96875 l 0,-6e-5 z m 90.875,0.75 c -0.32938,0.0441 -0.65875,0.1106 -0.96875,0.1875 0.056,0.0931 0.0942,0.18372 0.15625,0.28125 0.32391,-0.15295 0.57318,-0.31329 0.8125,-0.46875 z m -52.938,4.4688 c -1.0776,0.0415 -5.3515,0.3092 -3.0312,1.9062 2.5521,0.85101 0.18179,2.5706 -0.125,3.9062 0.28497,0.25208 0.58844,0.48663 0.90625,0.6875 0.76251,-0.1535 1.5795,0.11066 2.3125,1.0625 0.009,0.0128 0.0224,0.0187 0.0312,0.0312 0.88062,0.31024 1.7743,0.59149 2.6562,0.875 0.74774,-0.35376 1.27,-1.1915 1.125,-2.3438 0.003,-0.86987 0.0217,-1.7645 0.0312,-2.6562 -2.0696,-0.0983 -1.4161,-3.7187 -3.9062,-3.4688 l 9e-5,0 z m 18.938,0.1562 c -0.19571,0.001 -0.38178,0.0349 -0.5625,0.0937 -1.1245,0.36603 -1.7303,1.8178 0.96875,4.2812 2.4315,-2.9887 0.96365,-4.3839 -0.40625,-4.375 z m -46.906,1.5938 c -0.28882,1.1603 -0.83578,2.6674 -0.71875,3.6562 -0.48059,0.33765 -1.0103,0.12543 -1.4375,-0.375 -0.71048,3.485 -9.9892,-2.0102 -8.375,5.125 0.10346,0.45728 0.23065,0.88525 0.375,1.2812 1.6581,-0.99695 2.8619,-3.2924 5,-2.625 2.4449,1.1454 3.1881,4.482 1.8125,6.7188 -0.25201,0.61536 -0.608,1.223 -0.96875,1.8438 2.0238,1.2846 3.7058,2.6224 3.5,5.7812 0.75845,-0.0738 1.4737,-0.38788 2.0312,-1 1.703,-1.6405 2.9643,-4.3937 5.7188,-4.2812 2.6738,-0.30365 4.7788,2.113 3.6875,4.6562 0.25626,1.2554 0.69382,-1.901 2,-0.9375 0.96979,0.29047 2.9286,0.73859 1.2812,-0.59375 -1.4171,-2.0611 -3.4291,-3.9612 -4.0312,-6.4375 1.015,-0.9209 3.9521,-0.9997 2.3438,-3.1562 -0.21075,-0.56018 -0.20206,-0.91132 -0.0625,-1.0938 -0.8739,-0.54224 -1.9081,-0.80707 -2.9688,-0.625 -2.8126,0.88721 -1.3123,5.0965 -3.7812,6.375 -1.9422,0.58514 -5.1838,-1.4187 -3.8438,-3.5938 0.94424,-0.89874 1.7176,-1.9321 2.375,-3.0312 -0.63376,-0.44049 -1.2553,-0.93042 -1.5938,-1.1562 -1.6297,-1.3489 1.6424,-3.445 -0.25,-5.1875 -0.5975,-0.75977 -1.3153,-1.1669 -2.0938,-1.3438 z m 16.125,0.2188 c -0.2113,0.97058 -0.25616,1.9998 -0.28125,3.0312 1.5388,0.0725 4.0938,0.20502 2.625,-1.3438 -0.47165,-0.63367 -1.468,-1.1375 -2.3438,-1.6875 z m -9.875,1.1562 c -0.17413,0.0146 -0.34982,0.0529 -0.53125,0.0937 -1.8834,0.66547 -1.214,2.1952 -0.53125,3.7188 0.21011,-0.52106 0.39572,-1.0626 0.5625,-1.5938 0.2868,-0.73358 0.68045,-1.4853 1.1562,-2.1875 -0.215,-0.0228 -0.42718,-0.0504 -0.65625,-0.0312 z m 42.125,3.3125 c -0.19571,10e-4 -0.38178,0.0349 -0.5625,0.0937 -1.1245,0.36603 -1.7303,1.8178 0.96875,4.2812 2.4315,-2.9887 0.96365,-4.3839 -0.40625,-4.375 z m -76.562,1.0312 c -0.232,0.001 -0.48151,0.0395 -0.75,0.0625 0.64304,0.70679 1.2998,1.4415 1.9688,2.2812 -0.36697,0.79047 -0.95904,1.405 -1.625,1.8125 2.1006,3.0244 2.4586,7.4636 6.5312,3.5938 0.36166,-0.34363 0.67096,-0.70435 0.9375,-1.0312 -0.41156,-0.65686 -0.91598,-1.3137 -1.4062,-2 -0.46414,0.2121 -0.95633,0.3576 -1.4688,0.375 -0.06219,-0.18158 -0.1033,-0.38312 -0.125,-0.53125 -0.29703,0.11005 -0.57565,0.27759 -0.84375,0.4375 -0.20892,-0.0496 -0.45038,-0.10077 -0.65625,-0.1875 0.41058,-2.446 0.91739,-4.8305 -2.5625,-4.8125 z m -7.7188,1.4688 c -0.31992,0.0204 -0.65414,0.11499 -1,0.28125 -2.1314,0.70618 -4.3896,1.3589 -6.4688,2.3125 0.05429,0.0111 0.10117,0.0189 0.15625,0.0312 8.4144,1.8905 -1.3901,8.5241 7.2188,8.0312 0.21338,-0.0122 0.41034,-0.0425 0.59375,-0.0625 0.29059,-0.46826 0.86014,-0.96014 1.7812,-1.4688 0.0419,-0.0231 0.08362,-0.0405 0.125,-0.0625 -0.87116,-2.3215 -7.8554,-6.524 -1.25,-8.4062 0.14117,-0.0402 0.27072,-0.0616 0.40625,-0.0937 -0.38623,-0.36847 -0.93945,-0.60223 -1.5625,-0.5625 z m 59.219,2.1875 c -1.1883,1.6004 -0.90149,3.9618 -1.2812,5.875 -0.1456,1.1083 -0.82993,1.9372 -1.75,2.4375 0.40701,0.0955 0.85858,-0.0432 1.4062,-0.65625 0.78513,-1.3596 2.5756,-1.6232 3.4375,-1.4688 -0.0689,-2.1656 -1.6663,-4.0256 -1.8125,-6.1875 z m 39.188,1.0938 c -0.81357,0.12878 -1.4712,0.96783 -1,2.7812 -0.6246,0.51758 -0.82968,1.7378 0.25,4.0312 2.6613,-1.4429 2.7381,-2.8799 2.0312,-3.6875 1.5373,-1.6276 0.27786,-3.032 -0.9375,-3.125 -0.12033,-0.009 -0.22754,-0.0184 -0.34375,0 z" />
    <g
       transform="translate(0,168.429)"
       style="opacity:0.56699997;stroke-width:0.80000001"
       id="g3434">
      <path
         style="opacity:0.8"
         inkscape:connector-curvature="0"
         id="path3436"
         d="m 17.438,8.3203 0,63.812 0.40625,0 0.4062,-0.8125 0,-62.188 122.22,0 0.8125,-0.4062 0,-0.40625 -123.85,0 z" />
      <path
         style="opacity:0.8;fill:#ffffff"
         inkscape:connector-curvature="0"
         id="path3438"
         d="m 141.28,72.133 0,-63.812 -0.40625,0 -0.4062,0.8125 0,62.188 -122.22,0 -0.8125,0.4062 0,0.40625 123.85,0 z" />
    </g>
    <path
       style="opacity:0.71399997;fill:#ffffff"
       inkscape:connector-curvature="0"
       id="path3440"
       d="m 10.486,168.6459 c 0.06882,0.24252 0.125,0.4881 0.125,0.74048 0,0.12766 -0.0134,0.26111 -0.03119,0.38635 l 140.28,0 c -0.0181,-0.12543 -0.0312,-0.25851 -0.0312,-0.38635 0,-0.25238 0.0246,-0.49796 0.0937,-0.74048 l -140.44,0 z" />
    <path
       style="opacity:0.71399997;fill:#e2c26c"
       inkscape:connector-curvature="0"
       id="path3442"
       d="m 10.486,250.646 c 0.06882,0.24249 0.125,0.4881 0.125,0.74048 0,0.12762 -0.0134,0.26111 -0.03119,0.38635 l 140.28,0 c -0.0181,-0.12543 -0.0312,-0.25854 -0.0312,-0.38635 0,-0.25238 0.0246,-0.49799 0.0937,-0.74048 l -140.44,0 z" />
    <text
       transform="scale(0.60841429,1.6436169)"
       sodipodi:linespacing="200%"
       id="text3448"
       y="141.85828"
       x="31.457594"
       style="font-style:normal;font-variant:normal;font-weight:normal;font-stretch:normal;font-size:44.07108307px;line-height:200%;font-family:'Arial Black';-inkscape-font-specification:'Arial Black, Normal';text-align:start;writing-mode:lr-tb;text-anchor:start;opacity:1;fill:#000000;fill-opacity:1;stroke:#ffffff;stroke-width:0.72203088;stroke-linecap:round;stroke-linejoin:round;stroke-miterlimit:4;stroke-dasharray:none;stroke-dashoffset:0;stroke-opacity:1"
       xml:space="preserve"><tspan
         style="font-style:normal;font-variant:normal;font-weight:normal;font-stretch:normal;font-size:44.07108307px;line-height:200%;font-family:'Arial Black';-inkscape-font-specification:'Arial Black, Normal';text-align:start;writing-mode:lr-tb;text-anchor:start;stroke-width:0.72203088"
         y="141.85828"
         x="31.457594"
         id="tspan3450"
         sodipodi:role="line">Internet</tspan></text>
  </g>
</svg>
